<svg width="32" height="32" viewBox="0 0 32 32" fill="none" xmlns="http://www.w3.org/2000/svg">
<path d="M10.5714 4.28571H10.2857C10.4429 4.28571 10.5714 4.15714 10.5714 4V4.28571H21.4286V4C21.4286 4.15714 21.5571 4.28571 21.7143 4.28571H21.4286V6.85714H24V4C24 2.73929 22.975 1.71429 21.7143 1.71429H10.2857C9.025 1.71429 8 2.73929 8 4V6.85714H10.5714V4.28571ZM28.5714 6.85714H3.42857C2.79643 6.85714 2.28571 7.36786 2.28571 8V9.14286C2.28571 9.3 2.41429 9.42857 2.57143 9.42857H4.72857L5.61071 28.1071C5.66786 29.325 6.675 30.2857 7.89286 30.2857H24.1071C25.3286 30.2857 26.3321 29.3286 26.3893 28.1071L27.2714 9.42857H29.4286C29.5857 9.42857 29.7143 9.3 29.7143 9.14286V8C29.7143 7.36786 29.2036 6.85714 28.5714 6.85714ZM23.8321 27.7143H8.16786L7.30357 9.42857H24.6964L23.8321 27.7143Z" fill="black"/>
</svg>
