<svg width="24" height="24" viewBox="0 0 24 24" fill="none" xmlns="http://www.w3.org/2000/svg">
<path d="M22 7.81V12.5H17.92C17.8 12.49 17.54 12.34 17.48 12.23L16.44 10.26C16.03 9.48 15.32 9.04 14.56 9.08C13.8 9.12 13.15 9.63 12.82 10.46L11.44 13.92L11.24 13.4C10.75 12.13 9.35 11.17 7.97 11.17L2 11.2V7.81C2 4.17 4.17 2 7.81 2H16.19C19.83 2 22 4.17 22 7.81Z" fill="black"/>
<path d="M21.9997 16.1887V13.9987H17.9197C17.2497 13.9987 16.4597 13.5187 16.1497 12.9287L15.1097 10.9587C14.8297 10.4287 14.4297 10.4587 14.2097 11.0087L11.9097 16.8187C11.6597 17.4687 11.2397 17.4687 10.9797 16.8187L9.83973 13.9387C9.56973 13.2387 8.72973 12.6687 7.97973 12.6687L1.99973 12.6987V16.1887C1.99973 19.7687 4.09973 21.9287 7.62973 21.9887C7.73973 21.9987 7.85973 21.9987 7.96973 21.9987H15.9697C16.1197 21.9987 16.2697 21.9987 16.4097 21.9887C19.9197 21.9087 21.9997 19.7587 21.9997 16.1887ZM1.99973 12.6987V16.0097C1.97973 15.6897 1.96973 15.3497 1.96973 14.9997V12.6997L1.99973 12.6987Z" fill="black"/>
</svg>
