<svg width="24" height="24" viewBox="0 0 24 24" fill="none" xmlns="http://www.w3.org/2000/svg">
<path d="M20.8603 8.36985L13.9303 2.82985C12.8603 1.96985 11.1303 1.96985 10.0703 2.81985L3.14027 8.36985C2.36027 8.98985 1.86027 10.2998 2.03027 11.2798L3.36027 19.2398C3.60027 20.6598 4.96027 21.8098 6.40027 21.8098H17.6003C19.0303 21.8098 20.4003 20.6498 20.6403 19.2398L21.9703 11.2798C22.1303 10.2998 21.6303 8.98985 20.8603 8.36985ZM12.0003 15.4998C11.3372 15.4998 10.7013 15.2365 10.2325 14.7676C9.76366 14.2988 9.50027 13.6629 9.50027 12.9998C9.50027 12.3368 9.76366 11.7009 10.2325 11.2321C10.7013 10.7632 11.3372 10.4998 12.0003 10.4998C12.6633 10.4998 13.2992 10.7632 13.768 11.2321C14.2369 11.7009 14.5003 12.3368 14.5003 12.9998C14.5003 13.6629 14.2369 14.2988 13.768 14.7676C13.2992 15.2365 12.6633 15.4998 12.0003 15.4998Z" fill="black"/>
</svg>
