<svg width="24" height="24" viewBox="0 0 24 24" fill="none" xmlns="http://www.w3.org/2000/svg">
<path d="M15.2598 21.9985C15.1998 21.9985 15.1298 21.9885 15.0698 21.9685C13.0598 21.3985 10.9498 21.3985 8.93978 21.9685C8.56978 22.0685 8.17978 21.8585 8.07978 21.4885C8.05394 21.4005 8.0459 21.3082 8.05612 21.2171C8.06634 21.126 8.09462 21.0378 8.13931 20.9577C8.184 20.8777 8.2442 20.8073 8.3164 20.7508C8.38859 20.6942 8.47133 20.6527 8.55978 20.6285C10.8198 19.9885 13.1998 19.9885 15.4598 20.6285C15.8298 20.7385 16.0498 21.1185 15.9398 21.4885C15.8398 21.7985 15.5598 21.9985 15.2598 21.9985ZM19.2098 6.36148C18.1698 4.26148 16.1598 2.71148 13.8298 2.20148C11.3898 1.66148 8.88978 2.24148 6.97978 3.78148C6.03701 4.5313 5.27639 5.48501 4.75506 6.57096C4.23374 7.65692 3.96525 8.84688 3.96978 10.0515C3.96978 12.6415 5.51978 15.3515 7.85978 16.9215V17.7515C7.84978 18.0315 7.83978 18.4615 8.17978 18.8115C8.52978 19.1715 9.04978 19.2115 9.45978 19.2115H14.5898C15.1298 19.2115 15.5398 19.0615 15.8198 18.7815C16.1998 18.3915 16.1898 17.8915 16.1798 17.6215V16.9215C19.2798 14.8315 21.2298 10.4215 19.2098 6.36148ZM13.7198 11.6215L12.6498 13.4815C12.5098 13.7215 12.2598 13.8615 11.9998 13.8615C11.8693 13.8599 11.7414 13.8245 11.6287 13.7586C11.516 13.6928 11.4223 13.5989 11.3568 13.486C11.2913 13.3731 11.2562 13.2452 11.255 13.1147C11.2538 12.9842 11.2864 12.8556 11.3498 12.7415L12.1998 11.2615H11.3598C10.8598 11.2615 10.4498 11.0415 10.2298 10.6715C10.0098 10.2915 10.0298 9.83148 10.2798 9.39148L11.3498 7.53148C11.5598 7.17148 12.0198 7.05148 12.3698 7.25148C12.7298 7.46148 12.8498 7.92148 12.6498 8.27148L11.7998 9.75148H12.6398C13.1398 9.75148 13.5498 9.97148 13.7698 10.3415C13.9898 10.7215 13.9698 11.1915 13.7198 11.6215Z" fill="black"/>
</svg>
