<svg width="24" height="24" viewBox="0 0 24 24" fill="none" xmlns="http://www.w3.org/2000/svg">
<path d="M20.4296 11.78L18.2296 3.7C17.9796 2.77 16.9696 2 16.0096 2H7.98962C7.02962 2 6.01962 2.77 5.76962 3.7L3.56962 11.78C3.12962 13.38 4.12962 14.69 5.78962 14.69H11.2496V20.5H7.99962C7.58962 20.5 7.24962 20.84 7.24962 21.25C7.24962 21.66 7.58962 22 7.99962 22H15.9996C16.4096 22 16.7496 21.66 16.7496 21.25C16.7496 20.84 16.4096 20.5 15.9996 20.5H12.7496V14.69H18.2096C19.8696 14.69 20.8696 13.38 20.4296 11.78Z" fill="black"/>
</svg>
