<svg width="24" height="24" viewBox="0 0 24 24" fill="none" xmlns="http://www.w3.org/2000/svg">
<path d="M21.3 12.23H17.82C16.84 12.23 15.97 12.77 15.53 13.65L14.69 15.31C14.49 15.71 14.09 15.96 13.65 15.96H10.37C10.06 15.96 9.62 15.89 9.33 15.31L8.49 13.66C8.2774 13.2343 7.95067 12.8761 7.54629 12.6254C7.14192 12.3746 6.67581 12.2412 6.2 12.24H2.7C2.31 12.24 2 12.55 2 12.94V16.2C2 19.83 4.18 22 7.82 22H16.2C19.63 22 21.74 20.12 22 16.78V12.93C22 12.55 21.69 12.23 21.3 12.23Z" fill="black"/>
<path d="M22 7.81V10.85C21.7754 10.7698 21.5385 10.7292 21.3 10.73H17.82C16.27 10.73 14.88 11.59 14.19 12.97L13.44 14.45H10.58L9.83 12.98C9.49687 12.3023 8.97982 11.7319 8.33793 11.334C7.69604 10.9361 6.95519 10.7268 6.2 10.73H2.7C2.46 10.73 2.22 10.77 2 10.85V7.81C2 4.17 4.17 2 7.81 2H16.19C19.83 2 22 4.17 22 7.81Z" fill="black"/>
</svg>
